<svg width="2088" height="70" viewBox="0 0 2088 70" fill="none" xmlns="http://www.w3.org/2000/svg">
<g clip-path="url(#clip0_5179_8335)">
<rect width="2088" height="70" fill="url(#paint0_linear_5179_8335)"/>
<rect width="2088" height="748" transform="translate(0 -339)" fill="url(#paint1_linear_5179_8335)"/>
<path opacity="0.2" d="M1769 51.2854H1851C1851 44.4283 1844.85 38.9245 1837.19 38.9245H1822.25C1820.92 38.9245 1819.88 38.0223 1819.88 36.7591C1819.88 28.4583 1812.41 21.6914 1803.14 21.6914H1802.48C1793.21 21.6914 1785.74 28.4583 1785.74 36.7591V41.2704C1785.65 43.7065 1783.47 45.6012 1780.92 45.6012H1775.43C1772.03 45.4208 1769.09 48.0373 1769 51.2854Z" fill="white"/>
<path opacity="0.2" d="M1707.62 54.1116C1707.62 50.7715 1710.08 48 1713.13 48H1718.86C1721.91 48 1724.37 50.7005 1724.37 54.1116C1724.37 54.7511 1724.81 55.3197 1725.46 55.3197H1727.2C1729.81 55.3197 1731.92 57.6648 1731.92 60.5074H1700C1700 58.2333 1701.67 56.3146 1703.77 56.3146H1705.51C1706.75 56.3146 1707.69 55.3197 1707.62 54.1116C1707.62 54.1826 1707.62 54.1116 1707.62 54.1116Z" fill="white"/>
<path opacity="0.2" d="M1917 26.3077H1868C1868.11 21.9246 1871.79 18.5277 1876.24 18.6373H1885.15C1885.93 18.6373 1886.6 18.0894 1886.6 17.3223C1886.71 12.0626 1891.27 7.89869 1896.62 8.00827H1897.07C1902.41 7.78911 1906.87 11.9531 1907.09 17.3223V20.0618C1907.09 21.5959 1908.42 22.8012 1909.98 22.6916H1913.21C1915.22 22.5821 1916.89 24.1161 1917 26.3077C1917 26.1981 1917 26.1981 1917 26.3077Z" fill="white"/>
<path opacity="0.2" d="M1673 36H1611C1611.14 30.4935 1615.79 26.226 1621.43 26.3636H1632.7C1633.69 26.3636 1634.53 25.6753 1634.53 24.7117C1634.67 18.1039 1640.45 12.8727 1647.21 13.0104H1647.78C1654.54 12.7351 1660.18 17.9662 1660.46 24.7117V28.1532C1660.46 30.0805 1662.15 31.5948 1664.12 31.4571H1668.21C1670.75 31.3195 1672.86 33.2468 1673 36C1673 35.8623 1673 35.8623 1673 36Z" fill="white"/>
<path opacity="0.2" d="M1983 69.2747H1910C1910.17 62.7448 1915.64 57.6841 1922.28 57.8474H1935.55C1936.71 57.8474 1937.71 57.0311 1937.71 55.8884C1937.87 48.0525 1944.67 41.8491 1952.64 42.0123H1953.3C1961.27 41.6858 1967.9 47.8892 1968.23 55.8884V59.9696C1968.23 62.2551 1970.22 64.0508 1972.55 63.8875H1977.36C1980.35 63.7243 1982.83 66.0098 1983 69.2747C1983 69.1115 1983 69.1115 1983 69.2747Z" fill="white"/>
<path opacity="0.2" d="M309 51.2854H227C227 44.4283 233.148 38.9245 240.809 38.9245H255.752C257.076 38.9245 258.117 38.0223 258.117 36.7591C258.117 28.4583 265.588 21.6914 274.857 21.6914H275.519C284.788 21.6914 292.26 28.4583 292.26 36.7591V41.2704C292.354 43.7065 294.529 45.6012 297.083 45.6012H302.569C305.974 45.4208 308.906 48.0373 309 51.2854Z" fill="white"/>
<path opacity="0.2" d="M474 42H410C410 36.6707 414.798 32.3933 420.777 32.3933H432.441C433.474 32.3933 434.286 31.6921 434.286 30.7104C434.286 24.2592 440.118 19 447.352 19H447.869C455.103 19 460.934 24.2592 460.934 30.7104V34.2165C461.008 36.1098 462.706 37.5823 464.699 37.5823H468.98C471.638 37.4421 473.926 39.4756 474 42Z" fill="white"/>
<path opacity="0.2" d="M370.383 54.1116C370.383 50.7715 367.917 48 364.871 48H359.14C356.094 48 353.628 50.7005 353.628 54.1116C353.628 54.7511 353.192 55.3197 352.54 55.3197H350.799C348.187 55.3197 346.084 57.6648 346.084 60.5074H377.999C377.999 58.2333 376.331 56.3146 374.228 56.3146H372.487C371.254 56.3146 370.311 55.3197 370.383 54.1116C370.383 54.1826 370.383 54.1116 370.383 54.1116Z" fill="white"/>
<path opacity="0.2" d="M161 26.3077H210C209.889 21.9246 206.214 18.5277 201.759 18.6373H192.85C192.07 18.6373 191.402 18.0894 191.402 17.3223C191.291 12.0626 186.725 7.89869 181.38 8.00827H180.934C175.589 7.78911 171.134 11.9531 170.911 17.3223V20.0618C170.911 21.5959 169.575 22.8012 168.016 22.6916H164.786C162.782 22.5821 161.111 24.1161 161 26.3077C161 26.1981 161 26.1981 161 26.3077Z" fill="white"/>
<path opacity="0.2" d="M95 69.2747H168C167.834 62.7448 162.359 57.6841 155.723 57.8474H142.45C141.289 57.8474 140.293 57.0311 140.293 55.8884C140.127 48.0525 133.325 41.8491 125.361 42.0123H124.698C116.734 41.6858 110.098 47.8892 109.766 55.8884V59.9696C109.766 62.2551 107.775 64.0508 105.452 63.8875H100.641C97.6545 63.7243 95.1659 66.0098 95 69.2747C95 69.1115 95 69.1115 95 69.2747Z" fill="white"/>
<path d="M587.549 23.7418L594.91 20.1668C594.937 20.1503 594.96 20.1262 594.976 20.0968C594.992 20.0675 595 20.0341 595 20C595 19.9659 594.992 19.9325 594.976 19.9032C594.96 19.8738 594.937 19.8497 594.91 19.8332L587.549 16.2582C587.526 16.2582 587.503 16.2481 587.487 16.2303C587.471 16.2124 587.461 16.1881 587.461 16.1629L584.175 8.10725C584.088 7.96425 583.912 7.96425 583.869 8.10725L580.583 16.1629C580.539 16.2105 580.539 16.2582 580.495 16.2582L573.09 19.8332C573.063 19.8497 573.04 19.8738 573.024 19.9032C573.008 19.9325 573 19.9659 573 20C573 20.0341 573.008 20.0675 573.024 20.0968C573.04 20.1262 573.063 20.1503 573.09 20.1668L580.495 23.7418C580.539 23.7418 580.539 23.7895 580.583 23.8371L583.869 31.8928C583.912 32.0358 584.088 32.0358 584.175 31.8928L587.461 23.8371C587.461 23.8119 587.471 23.7876 587.487 23.7697C587.503 23.7519 587.526 23.7418 587.549 23.7418Z" fill="#83DDC5"/>
<path d="M598.94 59.2473L602.97 57.1456C602.989 57.1199 603 57.0867 603 57.0522C603 57.0178 602.989 56.9845 602.97 56.9588L598.94 54.8572C598.929 54.8572 598.919 54.8522 598.912 54.8435C598.904 54.8347 598.9 54.8228 598.9 54.8105L597.104 50.0934C597.104 50.0686 597.096 50.0449 597.081 50.0274C597.066 50.0098 597.046 50 597.025 50C597.003 50 596.983 50.0098 596.968 50.0274C596.953 50.0449 596.945 50.0686 596.945 50.0934L595.149 54.8105H595.11L591.08 56.9121C591.059 56.9121 591.038 56.9219 591.023 56.9395C591.008 56.957 591 56.9807 591 57.0055C591 57.0303 591.008 57.054 591.023 57.0716C591.038 57.0891 591.059 57.0989 591.08 57.0989L595.11 59.2006C595.12 59.2006 595.13 59.2055 595.138 59.2143C595.145 59.223 595.149 59.2349 595.149 59.2473L596.945 63.9643C596.967 63.9873 596.995 64 597.025 64C597.054 64 597.083 63.9873 597.104 63.9643L598.9 59.2473C598.9 59.2473 598.9 59.2473 598.94 59.2473Z" fill="#FBB848"/>
<path d="M562.293 46.6052L564.98 45.104C564.993 45.0857 565 45.0619 565 45.0373C565 45.0127 564.993 44.9889 564.98 44.9706L562.293 43.4694C562.286 43.4694 562.279 43.4659 562.274 43.4596C562.269 43.4534 562.267 43.4449 562.267 43.436L561.07 40.0667C561.07 40.049 561.064 40.0321 561.054 40.0195C561.044 40.007 561.031 40 561.016 40C561.002 40 560.989 40.007 560.979 40.0195C560.969 40.0321 560.963 40.049 560.963 40.0667L559.766 43.436H559.74L557.053 44.9372C557.039 44.9372 557.026 44.9442 557.016 44.9568C557.006 44.9693 557 44.9862 557 45.0039C557 45.0216 557.006 45.0386 557.016 45.0511C557.026 45.0636 557.039 45.0707 557.053 45.0707L559.74 46.5718C559.747 46.5718 559.754 46.5754 559.758 46.5816C559.763 46.5879 559.766 46.5964 559.766 46.6052L560.963 49.9745C560.978 49.9909 560.997 50 561.016 50C561.036 50 561.055 49.9909 561.07 49.9745L562.267 46.6052C562.267 46.6052 562.267 46.6052 562.293 46.6052Z" fill="#FEE75C"/>
<path d="M637.263 37.2473L641.964 35.1456C641.987 35.1199 642 35.0867 642 35.0522C642 35.0178 641.987 34.9845 641.964 34.9588L637.263 32.8571C637.251 32.8571 637.239 32.8522 637.23 32.8435C637.221 32.8347 637.217 32.8228 637.217 32.8105L635.122 28.0934C635.122 28.0686 635.112 28.0449 635.095 28.0274C635.077 28.0098 635.053 28 635.029 28C635.004 28 634.98 28.0098 634.963 28.0274C634.945 28.0449 634.936 28.0686 634.936 28.0934L632.841 32.8105H632.794L628.093 34.9121C628.068 34.9121 628.045 34.9219 628.027 34.9395C628.01 34.957 628 34.9807 628 35.0055C628 35.0303 628.01 35.054 628.027 35.0716C628.045 35.0891 628.068 35.0989 628.093 35.0989L632.794 37.2006C632.807 37.2006 632.819 37.2055 632.827 37.2143C632.836 37.223 632.841 37.2349 632.841 37.2473L634.936 41.9643C634.961 41.9873 634.994 42 635.029 42C635.063 42 635.096 41.9873 635.122 41.9643L637.217 37.2473C637.217 37.2473 637.217 37.2473 637.263 37.2473Z" fill="#FF78B9"/>
<path d="M1505.45 23.7418L1498.09 20.1668C1498.06 20.1503 1498.04 20.1262 1498.02 20.0968C1498.01 20.0675 1498 20.0341 1498 20C1498 19.9659 1498.01 19.9325 1498.02 19.9032C1498.04 19.8738 1498.06 19.8497 1498.09 19.8332L1505.45 16.2582C1505.47 16.2582 1505.5 16.2481 1505.51 16.2303C1505.53 16.2124 1505.54 16.1881 1505.54 16.1629L1508.82 8.10725C1508.91 7.96425 1509.09 7.96425 1509.13 8.10725L1512.42 16.1629C1512.46 16.2105 1512.46 16.2582 1512.51 16.2582L1519.91 19.8332C1519.94 19.8497 1519.96 19.8738 1519.98 19.9032C1519.99 19.9325 1520 19.9659 1520 20C1520 20.0341 1519.99 20.0675 1519.98 20.0968C1519.96 20.1262 1519.94 20.1503 1519.91 20.1668L1512.51 23.7418C1512.46 23.7418 1512.46 23.7895 1512.42 23.8371L1509.13 31.8928C1509.09 32.0358 1508.91 32.0358 1508.82 31.8928L1505.54 23.8371C1505.54 23.8119 1505.53 23.7876 1505.51 23.7697C1505.5 23.7519 1505.47 23.7418 1505.45 23.7418Z" fill="#83DDC5"/>
<path d="M1494.06 59.2473L1490.03 57.1456C1490.01 57.1199 1490 57.0867 1490 57.0522C1490 57.0178 1490.01 56.9845 1490.03 56.9588L1494.06 54.8572C1494.07 54.8572 1494.08 54.8522 1494.09 54.8435C1494.1 54.8347 1494.1 54.8228 1494.1 54.8105L1495.9 50.0934C1495.9 50.0686 1495.9 50.0449 1495.92 50.0274C1495.93 50.0098 1495.95 50 1495.98 50C1496 50 1496.02 50.0098 1496.03 50.0274C1496.05 50.0449 1496.06 50.0686 1496.06 50.0934L1497.85 54.8105H1497.89L1501.92 56.9121C1501.94 56.9121 1501.96 56.9219 1501.98 56.9395C1501.99 56.957 1502 56.9807 1502 57.0055C1502 57.0303 1501.99 57.054 1501.98 57.0716C1501.96 57.0891 1501.94 57.0989 1501.92 57.0989L1497.89 59.2006C1497.88 59.2006 1497.87 59.2055 1497.86 59.2143C1497.85 59.223 1497.85 59.2349 1497.85 59.2473L1496.06 63.9643C1496.03 63.9873 1496 64 1495.98 64C1495.95 64 1495.92 63.9873 1495.9 63.9643L1494.1 59.2473C1494.1 59.2473 1494.1 59.2473 1494.06 59.2473Z" fill="#FBB848"/>
<path d="M1530.71 46.6052L1528.02 45.104C1528.01 45.0857 1528 45.0619 1528 45.0373C1528 45.0127 1528.01 44.9889 1528.02 44.9706L1530.71 43.4694C1530.71 43.4694 1530.72 43.4659 1530.73 43.4596C1530.73 43.4534 1530.73 43.4449 1530.73 43.436L1531.93 40.0667C1531.93 40.049 1531.94 40.0321 1531.95 40.0195C1531.96 40.007 1531.97 40 1531.98 40C1532 40 1532.01 40.007 1532.02 40.0195C1532.03 40.0321 1532.04 40.049 1532.04 40.0667L1533.23 43.436H1533.26L1535.95 44.9372C1535.96 44.9372 1535.97 44.9442 1535.98 44.9568C1535.99 44.9693 1536 44.9862 1536 45.0039C1536 45.0216 1535.99 45.0386 1535.98 45.0511C1535.97 45.0636 1535.96 45.0707 1535.95 45.0707L1533.26 46.5718C1533.25 46.5718 1533.25 46.5754 1533.24 46.5816C1533.24 46.5879 1533.23 46.5964 1533.23 46.6052L1532.04 49.9745C1532.02 49.9909 1532 50 1531.98 50C1531.96 50 1531.94 49.9909 1531.93 49.9745L1530.73 46.6052C1530.73 46.6052 1530.73 46.6052 1530.71 46.6052Z" fill="#FEE75C"/>
<path d="M1455.74 37.2473L1451.04 35.1456C1451.01 35.1199 1451 35.0867 1451 35.0522C1451 35.0178 1451.01 34.9845 1451.04 34.9588L1455.74 32.8571C1455.75 32.8571 1455.76 32.8522 1455.77 32.8435C1455.78 32.8347 1455.78 32.8228 1455.78 32.8105L1457.88 28.0934C1457.88 28.0686 1457.89 28.0449 1457.91 28.0274C1457.92 28.0098 1457.95 28 1457.97 28C1458 28 1458.02 28.0098 1458.04 28.0274C1458.05 28.0449 1458.06 28.0686 1458.06 28.0934L1460.16 32.8105H1460.21L1464.91 34.9121C1464.93 34.9121 1464.96 34.9219 1464.97 34.9395C1464.99 34.957 1465 34.9807 1465 35.0055C1465 35.0303 1464.99 35.054 1464.97 35.0716C1464.96 35.0891 1464.93 35.0989 1464.91 35.0989L1460.21 37.2006C1460.19 37.2006 1460.18 37.2055 1460.17 37.2143C1460.16 37.223 1460.16 37.2349 1460.16 37.2473L1458.06 41.9643C1458.04 41.9873 1458.01 42 1457.97 42C1457.94 42 1457.9 41.9873 1457.88 41.9643L1455.78 37.2473C1455.78 37.2473 1455.78 37.2473 1455.74 37.2473Z" fill="#FF78B9"/>
</g>
<defs>
<linearGradient id="paint0_linear_5179_8335" x1="-190.501" y1="70" x2="-186.531" y2="-26.9778" gradientUnits="userSpaceOnUse">
<stop stop-color="#4670E8"/>
<stop offset="0.276042" stop-color="#4670E8"/>
<stop offset="0.492065" stop-color="#8377EB"/>
<stop offset="0.743208" stop-color="#E782F1"/>
<stop offset="1" stop-color="#DF90AF"/>
</linearGradient>
<linearGradient id="paint1_linear_5179_8335" x1="2182.25" y1="-95.6851" x2="1714.9" y2="1776.71" gradientUnits="userSpaceOnUse">
<stop stop-color="#3736BB"/>
<stop offset="0.474776" stop-color="#4670E8"/>
<stop offset="0.610005" stop-color="#8377EB"/>
<stop offset="0.720058" stop-color="#E782F1"/>
<stop offset="1" stop-color="#DF90AF"/>
</linearGradient>
<clipPath id="clip0_5179_8335">
<rect width="2088" height="70" fill="white"/>
</clipPath>
</defs>
</svg>
