<svg width="45" height="45" viewBox="0 0 45 45" fill="none" xmlns="http://www.w3.org/2000/svg">
<path d="M3.86441 14.2711C3.38793 16.0494 4.44323 17.8772 6.2215 18.3537L14.2711 20.5106C16.0494 20.9871 17.8772 19.9318 18.3537 18.1535L20.5106 10.1039C20.9871 8.32562 19.9318 6.49778 18.1535 6.0213L10.1039 3.86441C8.32562 3.38793 6.49778 4.44323 6.0213 6.2215L3.86441 14.2711Z" fill="#55EE83"/>
<path d="M24.3319 14.7481C22.9689 17.247 24.7776 20.2938 27.624 20.2938H37.49C40.3365 20.2938 42.1451 17.247 40.7821 14.7481L35.8491 5.70431C34.4278 3.09857 30.6862 3.09856 29.2649 5.7043L24.3319 14.7481Z" fill="#55EE83"/>
<path d="M10.993 24.8787C11.6534 24.2071 12.7216 24.2071 13.382 24.8787L14.7992 26.3197C15.0693 26.5944 15.4224 26.768 15.8013 26.8122L17.789 27.0443C18.7153 27.1525 19.3813 28.0048 19.2785 28.9504L19.058 30.9795C19.016 31.3663 19.1032 31.7562 19.3055 32.0861L20.367 33.8166C20.8616 34.6231 20.6239 35.6858 19.8354 36.1934L18.1432 37.2826C17.8207 37.4903 17.5763 37.8029 17.4497 38.17L16.7856 40.0959C16.4762 40.9933 15.5137 41.4663 14.6332 41.1536L12.7436 40.4827C12.3835 40.3548 11.9915 40.3548 11.6314 40.4827L9.74181 41.1536C8.86129 41.4663 7.89882 40.9933 7.58936 40.0959L6.92527 38.17C6.79869 37.8029 6.55433 37.4903 6.2318 37.2826L4.53964 36.1934C3.75111 35.6858 3.5134 34.6231 4.00803 33.8166L5.06948 32.0861C5.2718 31.7562 5.35901 31.3663 5.31698 30.9795L5.09646 28.9504C4.9937 28.0048 5.65975 27.1525 6.586 27.0443L8.57371 26.8122C8.95257 26.768 9.30569 26.5944 9.57581 26.3197L10.993 24.8787Z" fill="#55EE83"/>
<path d="M34.7339 25.7127C34.0739 23.9291 31.5511 23.9291 30.8911 25.7127L30.0311 28.037C29.6892 28.9608 28.9609 29.6892 28.0371 30.031L25.7128 30.8911C23.9291 31.5511 23.9291 34.0739 25.7128 34.7339L28.0371 35.594C28.9609 35.9358 29.6892 36.6642 30.0311 37.588L30.8911 39.9123C31.5511 41.6959 34.0739 41.6959 34.7339 39.9123L35.594 37.588C35.9358 36.6642 36.6642 35.9358 37.588 35.594L39.9123 34.7339C41.6959 34.0739 41.6959 31.5511 39.9123 30.8911L37.588 30.031C36.6642 29.6892 35.9358 28.9608 35.594 28.037L34.7339 25.7127Z" fill="#55EE83"/>
</svg>
