<svg id="Layer_1" data-name="Layer 1" xmlns="http://www.w3.org/2000/svg" viewBox="0 0 72 72"><defs><style>.cls-1{fill:none;}.cls-2{fill:#31b577;}</style></defs><polygon class="cls-1" points="16.71 0 0 16.71 0 23.29 23.29 0 16.71 0"/><polygon class="cls-1" points="24.71 0 0 24.71 0 31.29 31.29 0 24.71 0"/><polygon class="cls-1" points="8.71 0 0 8.71 0 15.29 15.29 0 8.71 0"/><polygon class="cls-1" points="72 64.71 64.71 72 71.29 72 72 71.29 72 64.71"/><polygon class="cls-1" points="72 56.71 56.71 72 63.29 72 72 63.29 72 56.71"/><polygon class="cls-1" points="72 24.71 24.71 72 31.29 72 72 31.29 72 24.71"/><polygon class="cls-1" points="32.71 0 0 32.71 0 39.29 39.29 0 32.71 0"/><polygon class="cls-1" points="72 0.71 0.71 72 7.29 72 72 7.29 72 0.71"/><polygon class="cls-1" points="72 8.71 8.71 72 15.29 72 72 15.29 72 8.71"/><polygon class="cls-1" points="72 32.71 32.71 72 39.29 72 72 39.29 72 32.71"/><polygon class="cls-1" points="72 16.71 16.71 72 23.29 72 72 23.29 72 16.71"/><polygon class="cls-1" points="64.71 0 0 64.71 0 71.29 71.29 0 64.71 0"/><polygon class="cls-1" points="72 40.71 40.71 72 47.29 72 72 47.29 72 40.71"/><polygon class="cls-1" points="40.71 0 0 40.71 0 47.29 47.29 0 40.71 0"/><polygon class="cls-1" points="72 48.71 48.71 72 55.29 72 72 55.29 72 48.71"/><polygon class="cls-1" points="48.71 0 0 48.71 0 55.29 55.29 0 48.71 0"/><polygon class="cls-1" points="56.71 0 0 56.71 0 63.29 63.29 0 56.71 0"/><polygon class="cls-1" points="0.71 0 0 0.71 0 7.29 7.29 0 0.71 0"/><polygon class="cls-2" points="72 0 71.29 0 0 71.29 0 72 0.71 72 72 0.71 72 0"/><polygon class="cls-2" points="72 7.29 7.29 72 8.71 72 72 8.71 72 7.29"/><polygon class="cls-2" points="72 15.29 15.29 72 16.71 72 72 16.71 72 15.29"/><polygon class="cls-2" points="72 23.29 23.29 72 24.71 72 72 24.71 72 23.29"/><polygon class="cls-2" points="72 31.29 31.29 72 32.71 72 72 32.71 72 31.29"/><polygon class="cls-2" points="72 39.29 39.29 72 40.71 72 72 40.71 72 39.29"/><polygon class="cls-2" points="72 47.29 47.29 72 48.71 72 72 48.71 72 47.29"/><polygon class="cls-2" points="72 55.29 55.29 72 56.71 72 72 56.71 72 55.29"/><polygon class="cls-2" points="72 63.29 63.29 72 64.71 72 72 64.71 72 63.29"/><polygon class="cls-2" points="72 71.29 71.29 72 72 72 72 71.29"/><polygon class="cls-2" points="0 0 0 0.71 0.71 0 0 0"/><polygon class="cls-2" points="7.29 0 0 7.29 0 8.71 8.71 0 7.29 0"/><polygon class="cls-2" points="15.29 0 0 15.29 0 16.71 16.71 0 15.29 0"/><polygon class="cls-2" points="23.29 0 0 23.29 0 24.71 24.71 0 23.29 0"/><polygon class="cls-2" points="31.29 0 0 31.29 0 32.71 32.71 0 31.29 0"/><polygon class="cls-2" points="39.29 0 0 39.29 0 40.71 40.71 0 39.29 0"/><polygon class="cls-2" points="47.29 0 0 47.29 0 48.71 48.71 0 47.29 0"/><polygon class="cls-2" points="55.29 0 0 55.29 0 56.71 56.71 0 55.29 0"/><polygon class="cls-2" points="63.29 0 0 63.29 0 64.71 64.71 0 63.29 0"/></svg>