<svg width="1440" height="70" viewBox="0 0 1440 70" fill="none" xmlns="http://www.w3.org/2000/svg">
<g clip-path="url(#clip0_6700_6959)">
<rect width="1440" height="70" fill="url(#paint0_linear_6700_6959)"/>
<g clip-path="url(#clip1_6700_6959)">
<rect width="2088" height="748" transform="translate(0 -339)" fill="url(#paint1_linear_6700_6959)"/>
<path opacity="0.2" d="M1314 51.2854H1396C1396 44.4283 1389.85 38.9245 1382.19 38.9245H1367.25C1365.92 38.9245 1364.88 38.0223 1364.88 36.7591C1364.88 28.4583 1357.41 21.6914 1348.14 21.6914H1347.48C1338.21 21.6914 1330.74 28.4583 1330.74 36.7591V41.2704C1330.65 43.7065 1328.47 45.6012 1325.92 45.6012H1320.43C1317.03 45.4208 1314.09 48.0373 1314 51.2854Z" fill="white"/>
<path opacity="0.2" d="M1252.61 54.1116C1252.61 50.7715 1255.08 48 1258.13 48H1263.86C1266.9 48 1269.37 50.7005 1269.37 54.1116C1269.37 54.7511 1269.81 55.3197 1270.46 55.3197H1272.2C1274.81 55.3197 1276.91 57.6648 1276.91 60.5074H1245C1245 58.2333 1246.67 56.3146 1248.77 56.3146H1250.51C1251.74 56.3146 1252.69 55.3197 1252.61 54.1116C1252.61 54.1826 1252.61 54.1116 1252.61 54.1116Z" fill="white"/>
<path opacity="0.2" d="M1462 26.3077H1413C1413.11 21.9246 1416.79 18.5277 1421.24 18.6373H1430.15C1430.93 18.6373 1431.6 18.0894 1431.6 17.3223C1431.71 12.0626 1436.27 7.89869 1441.62 8.00827H1442.07C1447.41 7.78911 1451.87 11.9531 1452.09 17.3223V20.0618C1452.09 21.5959 1453.42 22.8012 1454.98 22.6916H1458.21C1460.22 22.5821 1461.89 24.1161 1462 26.3077C1462 26.1981 1462 26.1981 1462 26.3077Z" fill="white"/>
<path opacity="0.2" d="M1218 36H1156C1156.14 30.4935 1160.79 26.226 1166.43 26.3636H1177.7C1178.69 26.3636 1179.53 25.6753 1179.53 24.7117C1179.67 18.1039 1185.45 12.8727 1192.21 13.0104H1192.78C1199.54 12.7351 1205.18 17.9662 1205.46 24.7117V28.1532C1205.46 30.0805 1207.15 31.5948 1209.12 31.4571H1213.21C1215.75 31.3195 1217.86 33.2468 1218 36C1218 35.8623 1218 35.8623 1218 36Z" fill="white"/>
<path opacity="0.2" d="M119 51.2854H37C37 44.4283 43.1476 38.9245 50.8086 38.9245H65.752C67.0762 38.9245 68.1165 38.0223 68.1165 36.7591C68.1165 28.4583 75.5883 21.6914 84.857 21.6914H85.5191C94.7878 21.6914 102.26 28.4583 102.26 36.7591V41.2704C102.354 43.7065 104.529 45.6012 107.083 45.6012H112.569C115.974 45.4208 118.906 48.0373 119 51.2854Z" fill="white"/>
<path opacity="0.2" d="M284 42H220C220 36.6707 224.798 32.3933 230.777 32.3933H242.441C243.474 32.3933 244.286 31.6921 244.286 30.7104C244.286 24.2592 250.118 19 257.352 19H257.869C265.103 19 270.934 24.2592 270.934 30.7104V34.2165C271.008 36.1098 272.706 37.5823 274.699 37.5823H278.98C281.638 37.4421 283.926 39.4756 284 42Z" fill="white"/>
<path opacity="0.2" d="M180.385 54.1116C180.385 50.7715 177.919 48 174.872 48H169.142C166.096 48 163.63 50.7005 163.63 54.1116C163.63 54.7511 163.194 55.3197 162.542 55.3197H160.801C158.189 55.3197 156.086 57.6648 156.086 60.5074H188.001C188.001 58.2333 186.333 56.3146 184.23 56.3146H182.489C181.256 56.3146 180.313 55.3197 180.385 54.1116C180.385 54.1826 180.385 54.1116 180.385 54.1116Z" fill="white"/>
<path opacity="0.2" d="M-29 26.3077H20C19.8886 21.9246 16.2136 18.5277 11.7591 18.6373H2.85C2.07045 18.6373 1.40228 18.0894 1.40228 17.3223C1.29091 12.0626 -3.275 7.89869 -8.62045 8.00827H-9.06591C-14.4114 7.78911 -18.8659 11.9531 -19.0886 17.3223V20.0618C-19.0886 21.5959 -20.425 22.8012 -21.9841 22.6916H-25.2136C-27.2182 22.5821 -28.8886 24.1161 -29 26.3077C-29 26.1981 -29 26.1981 -29 26.3077Z" fill="white"/>
<path d="M380.549 22.7418L387.91 19.1668C387.937 19.1503 387.96 19.1262 387.976 19.0968C387.992 19.0675 388 19.0341 388 19C388 18.9659 387.992 18.9325 387.976 18.9032C387.96 18.8738 387.937 18.8497 387.91 18.8332L380.549 15.2582C380.526 15.2582 380.503 15.2481 380.487 15.2303C380.471 15.2124 380.461 15.1881 380.461 15.1629L377.175 7.10725C377.088 6.96425 376.912 6.96425 376.869 7.10725L373.583 15.1629C373.539 15.2105 373.539 15.2582 373.495 15.2582L366.09 18.8332C366.063 18.8497 366.04 18.8738 366.024 18.9032C366.008 18.9325 366 18.9659 366 19C366 19.0341 366.008 19.0675 366.024 19.0968C366.04 19.1262 366.063 19.1503 366.09 19.1668L373.495 22.7418C373.539 22.7418 373.539 22.7895 373.583 22.8371L376.869 30.8928C376.912 31.0358 377.088 31.0358 377.175 30.8928L380.461 22.8371C380.461 22.8119 380.471 22.7876 380.487 22.7697C380.503 22.7519 380.526 22.7418 380.549 22.7418Z" fill="#83DDC5"/>
<path d="M391.94 58.2473L395.97 56.1456C395.989 56.1199 396 56.0867 396 56.0522C396 56.0178 395.989 55.9845 395.97 55.9588L391.94 53.8572C391.929 53.8572 391.919 53.8522 391.912 53.8435C391.904 53.8347 391.9 53.8228 391.9 53.8105L390.104 49.0934C390.104 49.0686 390.096 49.0449 390.081 49.0274C390.066 49.0098 390.046 49 390.025 49C390.003 49 389.983 49.0098 389.968 49.0274C389.953 49.0449 389.945 49.0686 389.945 49.0934L388.149 53.8105H388.11L384.08 55.9121C384.059 55.9121 384.038 55.9219 384.023 55.9395C384.008 55.957 384 55.9807 384 56.0055C384 56.0303 384.008 56.054 384.023 56.0716C384.038 56.0891 384.059 56.0989 384.08 56.0989L388.11 58.2006C388.12 58.2006 388.13 58.2055 388.138 58.2143C388.145 58.223 388.149 58.2349 388.149 58.2473L389.945 62.9643C389.967 62.9873 389.995 63 390.025 63C390.054 63 390.083 62.9873 390.104 62.9643L391.9 58.2473C391.9 58.2473 391.9 58.2473 391.94 58.2473Z" fill="#FBB848"/>
<path d="M355.293 45.6052L357.98 44.104C357.993 44.0857 358 44.0619 358 44.0373C358 44.0127 357.993 43.9889 357.98 43.9706L355.293 42.4694C355.286 42.4694 355.279 42.4659 355.274 42.4596C355.269 42.4534 355.267 42.4449 355.267 42.436L354.07 39.0667C354.07 39.049 354.064 39.0321 354.054 39.0195C354.044 39.007 354.031 39 354.016 39C354.002 39 353.989 39.007 353.979 39.0195C353.969 39.0321 353.963 39.049 353.963 39.0667L352.766 42.436H352.74L350.053 43.9372C350.039 43.9372 350.026 43.9442 350.016 43.9568C350.006 43.9693 350 43.9862 350 44.0039C350 44.0216 350.006 44.0386 350.016 44.0511C350.026 44.0636 350.039 44.0707 350.053 44.0707L352.74 45.5718C352.747 45.5718 352.754 45.5754 352.758 45.5816C352.763 45.5879 352.766 45.5964 352.766 45.6052L353.963 48.9745C353.978 48.9909 353.997 49 354.016 49C354.036 49 354.055 48.9909 354.07 48.9745L355.267 45.6052C355.267 45.6052 355.267 45.6052 355.293 45.6052Z" fill="#FEE75C"/>
<path d="M430.263 36.2473L434.964 34.1456C434.987 34.1199 435 34.0867 435 34.0522C435 34.0178 434.987 33.9845 434.964 33.9588L430.263 31.8571C430.251 31.8571 430.239 31.8522 430.23 31.8435C430.221 31.8347 430.217 31.8228 430.217 31.8105L428.122 27.0934C428.122 27.0686 428.112 27.0449 428.095 27.0274C428.077 27.0098 428.053 27 428.029 27C428.004 27 427.98 27.0098 427.963 27.0274C427.945 27.0449 427.936 27.0686 427.936 27.0934L425.841 31.8105H425.794L421.093 33.9121C421.068 33.9121 421.045 33.9219 421.027 33.9395C421.01 33.957 421 33.9807 421 34.0055C421 34.0303 421.01 34.054 421.027 34.0716C421.045 34.0891 421.068 34.0989 421.093 34.0989L425.794 36.2006C425.807 36.2006 425.819 36.2055 425.827 36.2143C425.836 36.223 425.841 36.2349 425.841 36.2473L427.936 40.9643C427.961 40.9873 427.994 41 428.029 41C428.063 41 428.096 40.9873 428.122 40.9643L430.217 36.2473C430.217 36.2473 430.217 36.2473 430.263 36.2473Z" fill="#FF78B9"/>
<path d="M1059.45 21.7418L1052.09 18.1668C1052.06 18.1503 1052.04 18.1262 1052.02 18.0968C1052.01 18.0675 1052 18.0341 1052 18C1052 17.9659 1052.01 17.9325 1052.02 17.9032C1052.04 17.8738 1052.06 17.8497 1052.09 17.8332L1059.45 14.2582C1059.47 14.2582 1059.5 14.2481 1059.51 14.2303C1059.53 14.2124 1059.54 14.1881 1059.54 14.1629L1062.82 6.10725C1062.91 5.96425 1063.09 5.96425 1063.13 6.10725L1066.42 14.1629C1066.46 14.2105 1066.46 14.2582 1066.51 14.2582L1073.91 17.8332C1073.94 17.8497 1073.96 17.8738 1073.98 17.9032C1073.99 17.9325 1074 17.9659 1074 18C1074 18.0341 1073.99 18.0675 1073.98 18.0968C1073.96 18.1262 1073.94 18.1503 1073.91 18.1668L1066.51 21.7418C1066.46 21.7418 1066.46 21.7895 1066.42 21.8371L1063.13 29.8928C1063.09 30.0358 1062.91 30.0358 1062.82 29.8928L1059.54 21.8371C1059.54 21.8119 1059.53 21.7876 1059.51 21.7697C1059.5 21.7519 1059.47 21.7418 1059.45 21.7418Z" fill="#83DDC5"/>
<path d="M1048.06 57.2473L1044.03 55.1456C1044.01 55.1199 1044 55.0867 1044 55.0522C1044 55.0178 1044.01 54.9845 1044.03 54.9588L1048.06 52.8572C1048.07 52.8572 1048.08 52.8522 1048.09 52.8435C1048.1 52.8347 1048.1 52.8228 1048.1 52.8105L1049.9 48.0934C1049.9 48.0686 1049.9 48.0449 1049.92 48.0274C1049.93 48.0098 1049.95 48 1049.98 48C1050 48 1050.02 48.0098 1050.03 48.0274C1050.05 48.0449 1050.06 48.0686 1050.06 48.0934L1051.85 52.8105H1051.89L1055.92 54.9121C1055.94 54.9121 1055.96 54.9219 1055.98 54.9395C1055.99 54.957 1056 54.9807 1056 55.0055C1056 55.0303 1055.99 55.054 1055.98 55.0716C1055.96 55.0891 1055.94 55.0989 1055.92 55.0989L1051.89 57.2006C1051.88 57.2006 1051.87 57.2055 1051.86 57.2143C1051.85 57.223 1051.85 57.2349 1051.85 57.2473L1050.06 61.9643C1050.03 61.9873 1050 62 1049.98 62C1049.95 62 1049.92 61.9873 1049.9 61.9643L1048.1 57.2473C1048.1 57.2473 1048.1 57.2473 1048.06 57.2473Z" fill="#FBB848"/>
<path d="M1084.71 44.6052L1082.02 43.104C1082.01 43.0857 1082 43.0619 1082 43.0373C1082 43.0127 1082.01 42.9889 1082.02 42.9706L1084.71 41.4694C1084.71 41.4694 1084.72 41.4659 1084.73 41.4596C1084.73 41.4534 1084.73 41.4449 1084.73 41.436L1085.93 38.0667C1085.93 38.049 1085.94 38.0321 1085.95 38.0195C1085.96 38.007 1085.97 38 1085.98 38C1086 38 1086.01 38.007 1086.02 38.0195C1086.03 38.0321 1086.04 38.049 1086.04 38.0667L1087.23 41.436H1087.26L1089.95 42.9372C1089.96 42.9372 1089.97 42.9442 1089.98 42.9568C1089.99 42.9693 1090 42.9862 1090 43.0039C1090 43.0216 1089.99 43.0386 1089.98 43.0511C1089.97 43.0636 1089.96 43.0707 1089.95 43.0707L1087.26 44.5718C1087.25 44.5718 1087.25 44.5754 1087.24 44.5816C1087.24 44.5879 1087.23 44.5964 1087.23 44.6052L1086.04 47.9745C1086.02 47.9909 1086 48 1085.98 48C1085.96 48 1085.94 47.9909 1085.93 47.9745L1084.73 44.6052C1084.73 44.6052 1084.73 44.6052 1084.71 44.6052Z" fill="#FEE75C"/>
<path d="M1009.74 35.2473L1005.04 33.1456C1005.01 33.1199 1005 33.0867 1005 33.0522C1005 33.0178 1005.01 32.9845 1005.04 32.9588L1009.74 30.8571C1009.75 30.8571 1009.76 30.8522 1009.77 30.8435C1009.78 30.8347 1009.78 30.8228 1009.78 30.8105L1011.88 26.0934C1011.88 26.0686 1011.89 26.0449 1011.91 26.0274C1011.92 26.0098 1011.95 26 1011.97 26C1012 26 1012.02 26.0098 1012.04 26.0274C1012.05 26.0449 1012.06 26.0686 1012.06 26.0934L1014.16 30.8105H1014.21L1018.91 32.9121C1018.93 32.9121 1018.96 32.9219 1018.97 32.9395C1018.99 32.957 1019 32.9807 1019 33.0055C1019 33.0303 1018.99 33.054 1018.97 33.0716C1018.96 33.0891 1018.93 33.0989 1018.91 33.0989L1014.21 35.2006C1014.19 35.2006 1014.18 35.2055 1014.17 35.2143C1014.16 35.223 1014.16 35.2349 1014.16 35.2473L1012.06 39.9643C1012.04 39.9873 1012.01 40 1011.97 40C1011.94 40 1011.9 39.9873 1011.88 39.9643L1009.78 35.2473C1009.78 35.2473 1009.78 35.2473 1009.74 35.2473Z" fill="#FF78B9"/>
</g>
</g>
<defs>
<linearGradient id="paint0_linear_6700_6959" x1="-131.38" y1="70" x2="-125.634" y2="-26.7993" gradientUnits="userSpaceOnUse">
<stop stop-color="#4670E8"/>
<stop offset="0.276042" stop-color="#4670E8"/>
<stop offset="0.492065" stop-color="#8377EB"/>
<stop offset="0.743208" stop-color="#E782F1"/>
<stop offset="1" stop-color="#DF90AF"/>
</linearGradient>
<linearGradient id="paint1_linear_6700_6959" x1="2182.25" y1="-95.6851" x2="1714.9" y2="1776.71" gradientUnits="userSpaceOnUse">
<stop stop-color="#3736BB"/>
<stop offset="0.474776" stop-color="#4670E8"/>
<stop offset="0.610005" stop-color="#8377EB"/>
<stop offset="0.720058" stop-color="#E782F1"/>
<stop offset="1" stop-color="#DF90AF"/>
</linearGradient>
<clipPath id="clip0_6700_6959">
<rect width="1440" height="70" fill="white"/>
</clipPath>
<clipPath id="clip1_6700_6959">
<rect width="2088" height="748" fill="white" transform="translate(0 -339)"/>
</clipPath>
</defs>
</svg>
